<svg width="20" height="20" viewBox="0 0 20 20" fill="none" xmlns="http://www.w3.org/2000/svg">
<g clip-path="url(#clip0_28759_328)">
<path d="M10 7.50003L3.38657 11.7988C2.81337 12.1714 2.52676 12.3577 2.4275 12.5939C2.34075 12.8004 2.34075 13.033 2.4275 13.2395M10 7.50003L16.6135 11.7988C17.1867 12.1714 17.4733 12.3577 17.5725 12.5939C17.6593 12.8004 17.6593 13.033 17.5725 13.2395M10 7.50003V2.08337M10 12.5L3.38657 8.20129C2.81337 7.82871 2.52676 7.64241 2.4275 7.40617C2.34075 7.19971 2.34075 6.96702 2.4275 6.76056M10 12.5L16.6135 8.20129C17.1867 7.82871 17.4733 7.64241 17.5725 7.40617C17.6593 7.19971 17.6593 6.96702 17.5725 6.76056M10 12.5V17.9167M17.7267 13.311L10.7267 17.861C10.4637 18.032 10.3321 18.1175 10.1904 18.1507C10.0652 18.1801 9.93484 18.1801 9.80959 18.1507C9.6679 18.1175 9.53639 18.032 9.27337 17.861L2.27337 13.311C2.0517 13.167 1.94086 13.0949 1.86056 12.9988C1.78948 12.9137 1.73608 12.8154 1.7035 12.7094C1.66669 12.5897 1.66669 12.4575 1.66669 12.1931V7.80695C1.66669 7.54256 1.66669 7.41037 1.7035 7.29067C1.73608 7.18471 1.78948 7.08632 1.86056 7.00125C1.94086 6.90515 2.0517 6.83311 2.27337 6.68902L9.27337 2.13902C9.53639 1.96806 9.6679 1.88258 9.80959 1.84932C9.93484 1.81992 10.0652 1.81992 10.1904 1.84932C10.3321 1.88258 10.4637 1.96806 10.7267 2.13902L17.7267 6.68902C17.9483 6.83311 18.0592 6.90515 18.1395 7.00125C18.2106 7.08632 18.264 7.18471 18.2965 7.29067C18.3334 7.41037 18.3334 7.54256 18.3334 7.80695V12.1931C18.3334 12.4575 18.3334 12.5897 18.2965 12.7094C18.264 12.8154 18.2106 12.9137 18.1395 12.9988C18.0592 13.0949 17.9483 13.167 17.7267 13.311Z" stroke="#3F3F46" stroke-width="1.66667" stroke-linecap="round" stroke-linejoin="round"/>
</g>
<defs>
<clipPath id="clip0_28759_328">
<rect width="20" height="20" fill="white"/>
</clipPath>
</defs>
</svg>
